<svg xmlns="http://www.w3.org/2000/svg" width="1200" height="690" viewBox="0 0 1200 690" role="img" aria-labelledby="title desc">
  <title id="title">17×17 monochromatic no-three-in-line configurations</title>
  <desc id="desc">Exact 26-point configurations for both parity classes on a 17×17 checkerboard grid. No three selected points are collinear.</desc>
  <style>
    .title { font: 700 30px Arial, Helvetica, sans-serif; fill: #111827; }
    .subtitle { font: 16px Arial, Helvetica, sans-serif; fill: #374151; }
    .panel-title { font: 700 21px Arial, Helvetica, sans-serif; fill: #111827; }
    .panel-subtitle { font: 14px Arial, Helvetica, sans-serif; fill: #4b5563; }
    .tick { font: 12px Arial, Helvetica, sans-serif; fill: #111827; }
    .axis { font: italic 22px Georgia, serif; fill: #111827; }
    .caption { font: 15px Arial, Helvetica, sans-serif; fill: #374151; }
    .border { fill: none; stroke: #6b7280; stroke-width: 1.4; }
    .even-point { fill: #1d4ed8; stroke: #fff; stroke-width: 1.2; }
    .odd-point { fill: #7c3aed; stroke: #fff; stroke-width: 1.2; }
  </style>
  <defs>
    <pattern id="grid" width="24" height="24" patternUnits="userSpaceOnUse">
      <path d="M 24 0 L 0 0 0 24" fill="none" stroke="#c7cdd6" stroke-width="1"/>
    </pattern>
    <pattern id="checker-even" width="48" height="48" patternUnits="userSpaceOnUse">
      <rect x="0" y="0" width="24" height="24" fill="#eef3fb"/>
      <rect x="24" y="24" width="24" height="24" fill="#eef3fb"/>
    </pattern>
    <pattern id="checker-odd" width="48" height="48" patternUnits="userSpaceOnUse">
      <rect x="24" y="0" width="24" height="24" fill="#f3eefe"/>
      <rect x="0" y="24" width="24" height="24" fill="#f3eefe"/>
    </pattern>
  </defs>

  <rect width="100%" height="100%" fill="#ffffff"/>
  <text class="title" x="600" y="38" text-anchor="middle">17×17 monochromatic no-three-in-line</text>
  <text class="subtitle" x="600" y="64" text-anchor="middle">Exact result: D_mono(17, even) = D_mono(17, odd) = D_mono(17) = 26</text>

  <g id="even-configuration">
    <text class="panel-title" x="292" y="98" text-anchor="middle">Even color class</text>
    <text class="panel-subtitle" x="292" y="120" text-anchor="middle">26 selected points, (x+y) mod 2 = 0</text>
    <rect x="88.0" y="164.0" width="408" height="408" fill="#ffffff"/>
    <rect x="88.0" y="164.0" width="408" height="408" fill="url(#checker-even)"/>
    <rect x="88.0" y="164.0" width="408" height="408" fill="url(#grid)"/>
    <rect class="border" x="88.0" y="164.0" width="408" height="408"/>
      <text class="tick" x="100" y="588" text-anchor="middle">0</text>
      <text class="tick" x="78" y="564" text-anchor="end">0</text>
      <text class="tick" x="124" y="588" text-anchor="middle">1</text>
      <text class="tick" x="78" y="540" text-anchor="end">1</text>
      <text class="tick" x="148" y="588" text-anchor="middle">2</text>
      <text class="tick" x="78" y="516" text-anchor="end">2</text>
      <text class="tick" x="172" y="588" text-anchor="middle">3</text>
      <text class="tick" x="78" y="492" text-anchor="end">3</text>
      <text class="tick" x="196" y="588" text-anchor="middle">4</text>
      <text class="tick" x="78" y="468" text-anchor="end">4</text>
      <text class="tick" x="220" y="588" text-anchor="middle">5</text>
      <text class="tick" x="78" y="444" text-anchor="end">5</text>
      <text class="tick" x="244" y="588" text-anchor="middle">6</text>
      <text class="tick" x="78" y="420" text-anchor="end">6</text>
      <text class="tick" x="268" y="588" text-anchor="middle">7</text>
      <text class="tick" x="78" y="396" text-anchor="end">7</text>
      <text class="tick" x="292" y="588" text-anchor="middle">8</text>
      <text class="tick" x="78" y="372" text-anchor="end">8</text>
      <text class="tick" x="316" y="588" text-anchor="middle">9</text>
      <text class="tick" x="78" y="348" text-anchor="end">9</text>
      <text class="tick" x="340" y="588" text-anchor="middle">10</text>
      <text class="tick" x="78" y="324" text-anchor="end">10</text>
      <text class="tick" x="364" y="588" text-anchor="middle">11</text>
      <text class="tick" x="78" y="300" text-anchor="end">11</text>
      <text class="tick" x="388" y="588" text-anchor="middle">12</text>
      <text class="tick" x="78" y="276" text-anchor="end">12</text>
      <text class="tick" x="412" y="588" text-anchor="middle">13</text>
      <text class="tick" x="78" y="252" text-anchor="end">13</text>
      <text class="tick" x="436" y="588" text-anchor="middle">14</text>
      <text class="tick" x="78" y="228" text-anchor="end">14</text>
      <text class="tick" x="460" y="588" text-anchor="middle">15</text>
      <text class="tick" x="78" y="204" text-anchor="end">15</text>
      <text class="tick" x="484" y="588" text-anchor="middle">16</text>
      <text class="tick" x="78" y="180" text-anchor="end">16</text>
    <text class="axis" x="292" y="615" text-anchor="middle">x</text>
    <text class="axis" x="52" y="375" text-anchor="middle">y</text>
      <circle class="even-point" cx="100" cy="464" r="6"/>
      <circle class="even-point" cx="100" cy="272" r="6"/>
      <circle class="even-point" cx="124" cy="440" r="6"/>
      <circle class="even-point" cx="124" cy="392" r="6"/>
      <circle class="even-point" cx="148" cy="272" r="6"/>
      <circle class="even-point" cx="148" cy="224" r="6"/>
      <circle class="even-point" cx="172" cy="536" r="6"/>
      <circle class="even-point" cx="172" cy="440" r="6"/>
      <circle class="even-point" cx="196" cy="512" r="6"/>
      <circle class="even-point" cx="220" cy="248" r="6"/>
      <circle class="even-point" cx="244" cy="176" r="6"/>
      <circle class="even-point" cx="292" cy="512" r="6"/>
      <circle class="even-point" cx="292" cy="176" r="6"/>
      <circle class="even-point" cx="316" cy="200" r="6"/>
      <circle class="even-point" cx="340" cy="560" r="6"/>
      <circle class="even-point" cx="364" cy="488" r="6"/>
      <circle class="even-point" cx="364" cy="392" r="6"/>
      <circle class="even-point" cx="388" cy="560" r="6"/>
      <circle class="even-point" cx="412" cy="248" r="6"/>
      <circle class="even-point" cx="412" cy="200" r="6"/>
      <circle class="even-point" cx="436" cy="416" r="6"/>
      <circle class="even-point" cx="436" cy="224" r="6"/>
      <circle class="even-point" cx="460" cy="536" r="6"/>
      <circle class="even-point" cx="460" cy="296" r="6"/>
      <circle class="even-point" cx="484" cy="464" r="6"/>
      <circle class="even-point" cx="484" cy="416" r="6"/>
  </g>

  <g id="odd-configuration">
    <text class="panel-title" x="882" y="98" text-anchor="middle">Odd color class</text>
    <text class="panel-subtitle" x="882" y="120" text-anchor="middle">26 selected points, (x+y) mod 2 = 1</text>
    <rect x="678.0" y="164.0" width="408" height="408" fill="#ffffff"/>
    <rect x="678.0" y="164.0" width="408" height="408" fill="url(#checker-odd)"/>
    <rect x="678.0" y="164.0" width="408" height="408" fill="url(#grid)"/>
    <rect class="border" x="678.0" y="164.0" width="408" height="408"/>
      <text class="tick" x="690" y="588" text-anchor="middle">0</text>
      <text class="tick" x="668" y="564" text-anchor="end">0</text>
      <text class="tick" x="714" y="588" text-anchor="middle">1</text>
      <text class="tick" x="668" y="540" text-anchor="end">1</text>
      <text class="tick" x="738" y="588" text-anchor="middle">2</text>
      <text class="tick" x="668" y="516" text-anchor="end">2</text>
      <text class="tick" x="762" y="588" text-anchor="middle">3</text>
      <text class="tick" x="668" y="492" text-anchor="end">3</text>
      <text class="tick" x="786" y="588" text-anchor="middle">4</text>
      <text class="tick" x="668" y="468" text-anchor="end">4</text>
      <text class="tick" x="810" y="588" text-anchor="middle">5</text>
      <text class="tick" x="668" y="444" text-anchor="end">5</text>
      <text class="tick" x="834" y="588" text-anchor="middle">6</text>
      <text class="tick" x="668" y="420" text-anchor="end">6</text>
      <text class="tick" x="858" y="588" text-anchor="middle">7</text>
      <text class="tick" x="668" y="396" text-anchor="end">7</text>
      <text class="tick" x="882" y="588" text-anchor="middle">8</text>
      <text class="tick" x="668" y="372" text-anchor="end">8</text>
      <text class="tick" x="906" y="588" text-anchor="middle">9</text>
      <text class="tick" x="668" y="348" text-anchor="end">9</text>
      <text class="tick" x="930" y="588" text-anchor="middle">10</text>
      <text class="tick" x="668" y="324" text-anchor="end">10</text>
      <text class="tick" x="954" y="588" text-anchor="middle">11</text>
      <text class="tick" x="668" y="300" text-anchor="end">11</text>
      <text class="tick" x="978" y="588" text-anchor="middle">12</text>
      <text class="tick" x="668" y="276" text-anchor="end">12</text>
      <text class="tick" x="1002" y="588" text-anchor="middle">13</text>
      <text class="tick" x="668" y="252" text-anchor="end">13</text>
      <text class="tick" x="1026" y="588" text-anchor="middle">14</text>
      <text class="tick" x="668" y="228" text-anchor="end">14</text>
      <text class="tick" x="1050" y="588" text-anchor="middle">15</text>
      <text class="tick" x="668" y="204" text-anchor="end">15</text>
      <text class="tick" x="1074" y="588" text-anchor="middle">16</text>
      <text class="tick" x="668" y="180" text-anchor="end">16</text>
    <text class="axis" x="882" y="615" text-anchor="middle">x</text>
    <text class="axis" x="642" y="375" text-anchor="middle">y</text>
      <circle class="odd-point" cx="690" cy="344" r="6"/>
      <circle class="odd-point" cx="690" cy="248" r="6"/>
      <circle class="odd-point" cx="714" cy="560" r="6"/>
      <circle class="odd-point" cx="714" cy="416" r="6"/>
      <circle class="odd-point" cx="738" cy="248" r="6"/>
      <circle class="odd-point" cx="762" cy="512" r="6"/>
      <circle class="odd-point" cx="762" cy="464" r="6"/>
      <circle class="odd-point" cx="786" cy="296" r="6"/>
      <circle class="odd-point" cx="786" cy="200" r="6"/>
      <circle class="odd-point" cx="810" cy="560" r="6"/>
      <circle class="odd-point" cx="810" cy="416" r="6"/>
      <circle class="odd-point" cx="834" cy="200" r="6"/>
      <circle class="odd-point" cx="858" cy="512" r="6"/>
      <circle class="odd-point" cx="858" cy="224" r="6"/>
      <circle class="odd-point" cx="930" cy="536" r="6"/>
      <circle class="odd-point" cx="954" cy="224" r="6"/>
      <circle class="odd-point" cx="954" cy="176" r="6"/>
      <circle class="odd-point" cx="978" cy="536" r="6"/>
      <circle class="odd-point" cx="978" cy="440" r="6"/>
      <circle class="odd-point" cx="1002" cy="176" r="6"/>
      <circle class="odd-point" cx="1026" cy="488" r="6"/>
      <circle class="odd-point" cx="1026" cy="296" r="6"/>
      <circle class="odd-point" cx="1050" cy="368" r="6"/>
      <circle class="odd-point" cx="1050" cy="272" r="6"/>
      <circle class="odd-point" cx="1074" cy="488" r="6"/>
      <circle class="odd-point" cx="1074" cy="392" r="6"/>
  </g>

  <text class="caption" x="600" y="662" text-anchor="middle">Coordinates use 0 ≤ x,y ≤ 16. Each panel is verified by n17/verify_n17.py: 26 points, no three collinear.</text>
</svg>
